<svg width="40" height="41" viewBox="0 0 40 41" fill="none" xmlns="http://www.w3.org/2000/svg">
<g clip-path="url(#clip0_241_5072)">
<path d="M0 20.9435C0 23.0916 1.741 24.8326 3.88908 24.8326C6.03715 24.8326 7.77815 23.0916 7.77815 20.9435C7.77815 18.7955 3.88908 10.207 3.88908 10.207C3.88908 10.207 0 18.7961 0 20.9435Z" fill="#141415"/>
<path d="M9.58197 2.91554L8.92068 3.57684C7.95756 2.61371 6.39547 2.61371 5.43183 3.57684C4.4682 4.53996 4.4682 6.10205 5.43183 7.06568L4.77054 7.72698L19.0451 22.0016L23.8566 17.1901L9.58197 2.91554ZM16.6706 17.1222L7.03111 7.48267L9.38732 5.12646L19.0268 14.766L16.6706 17.1222Z" fill="#141415"/>
<path d="M38.7542 30.8852L28.9745 21.105C29.7321 20.3475 29.7321 19.1186 28.9745 18.3611C28.217 17.6036 26.9881 17.6036 26.2307 18.3611L20.216 24.3758C19.4584 25.1333 19.4584 26.3622 20.216 27.1197C20.9735 27.8771 22.2024 27.8772 22.9599 27.1197L32.7396 36.8994C34.4006 38.5604 37.0932 38.5604 38.7537 36.8994C40.4152 35.2383 40.4152 32.5457 38.7542 30.8852Z" fill="#141415"/>
</g>
<defs>
<clipPath id="clip0_241_5072">
<rect width="40" height="40" fill="white" transform="translate(0 0.5)"/>
</clipPath>
</defs>
</svg>
