<svg width="40" height="41" viewBox="0 0 40 41" fill="none" xmlns="http://www.w3.org/2000/svg">
<path fill-rule="evenodd" clip-rule="evenodd" d="M21.3767 10.6267C19.1562 11.1364 17.5 13.1248 17.5 15.5V16.75H27.5V15.5C27.5 13.2507 26.0147 11.3482 23.9713 10.72C24.3638 9.8531 25.2365 9.25 26.25 9.25C27.6307 9.25 28.75 10.3693 28.75 11.75V21.75H7.5V24.25H8.75V30.5C8.75 32.571 10.4289 34.25 12.5 34.25H27.5C29.571 34.25 31.25 32.571 31.25 30.5V24.25H32.5V21.75H31.25V11.75C31.25 8.98858 29.0115 6.75 26.25 6.75C23.8748 6.75 21.8865 8.40617 21.3767 10.6267ZM11.25 24.25H28.75V30.5C28.75 31.1903 28.1903 31.75 27.5 31.75H12.5C11.8096 31.75 11.25 31.1903 11.25 30.5V24.25ZM22.5 13C23.4253 13 24.2333 13.5027 24.6655 14.25H20.3345C20.7667 13.5027 21.5747 13 22.5 13Z" fill="#141415"/>
</svg>
