<svg width="39" height="39" viewBox="0 0 39 39" fill="none" xmlns="http://www.w3.org/2000/svg">
<path fill-rule="evenodd" clip-rule="evenodd" d="M36.1548 13.3453L26.1548 3.3453L28.5118 0.988281L38.5118 10.9883L36.1548 13.3453Z" fill="#141415"/>
<path fill-rule="evenodd" clip-rule="evenodd" d="M26.0715 11.0716L30.7882 6.35498L33.1452 8.712L28.4286 13.4287L26.0715 11.0716Z" fill="#141415"/>
<path fill-rule="evenodd" clip-rule="evenodd" d="M26.0714 20.4953L22.5381 16.962L24.8951 14.605L28.4284 18.1383L26.0714 20.4953Z" fill="#141415"/>
<path fill-rule="evenodd" clip-rule="evenodd" d="M22.5381 24.0285L19.0048 20.4952L21.3618 18.1382L24.8951 21.6715L22.5381 24.0285Z" fill="#141415"/>
<path fill-rule="evenodd" clip-rule="evenodd" d="M34.4882 21.6785L17.8215 5.01181L20.1786 2.65479L36.8452 19.3215L34.4882 21.6785Z" fill="#141415"/>
<path fill-rule="evenodd" clip-rule="evenodd" d="M23.1667 5.64307L33.8571 16.3334L18.1976 31.9929L11.3332 33.657L5.84314 28.1669L7.50722 21.3025L23.1667 5.64307ZM10.5262 22.9976L9.52359 27.1333L12.3668 29.9765L16.5025 28.9739L29.143 16.3334L23.1667 10.3571L10.5262 22.9976Z" fill="#141415"/>
<path fill-rule="evenodd" clip-rule="evenodd" d="M10.9452 30.9122L2.91183 38.9455L0.55481 36.5885L8.58814 28.5552L10.9452 30.9122Z" fill="#141415"/>
<path fill-rule="evenodd" clip-rule="evenodd" d="M19.0021 27.5758L15.4688 24.0258L17.8313 21.6743L21.3646 25.2243L19.0021 27.5758Z" fill="#141415"/>
</svg>
